<svg id="svg" version="1.1" xmlns="http://www.w3.org/2000/svg" xmlns:xlink="http://www.w3.org/1999/xlink" width="400" height="400" viewBox="0, 0, 400,400"><g id="svgg"><path id="path0" d="M263.187 136.909 C 260.558 139.360,255.226 144.103,253.600 145.436 C 252.830 146.067,251.930 146.859,251.600 147.195 C 251.270 147.531,249.650 148.974,248.000 150.403 C 246.350 151.831,244.910 153.090,244.800 153.200 C 244.690 153.310,243.250 154.569,241.600 155.997 C 239.950 157.426,238.330 158.867,238.000 159.200 C 237.670 159.533,236.050 160.974,234.400 162.403 C 232.750 163.831,231.310 165.090,231.200 165.200 C 231.090 165.310,229.650 166.570,228.000 168.000 C 226.350 169.429,224.190 171.344,223.200 172.255 C 222.210 173.166,220.770 174.423,220.000 175.048 C 219.230 175.673,218.330 176.459,218.000 176.795 C 217.670 177.131,216.050 178.574,214.400 180.003 C 212.750 181.431,211.310 182.690,211.200 182.800 C 211.090 182.910,209.650 184.170,208.000 185.600 C 206.350 187.030,204.910 188.292,204.800 188.405 C 204.690 188.518,203.070 189.959,201.200 191.606 C 199.330 193.252,197.710 194.690,197.600 194.800 C 197.490 194.911,196.050 196.170,194.400 197.600 C 192.750 199.030,191.310 200.293,191.200 200.407 C 191.090 200.522,189.650 201.782,188.001 203.208 C 186.351 204.633,184.731 206.071,184.401 206.403 C 184.070 206.735,182.450 208.174,180.800 209.603 C 179.150 211.031,177.710 212.290,177.600 212.400 C 177.490 212.510,176.050 213.770,174.400 215.200 C 172.750 216.630,171.310 217.892,171.200 218.005 C 171.090 218.118,169.470 219.559,167.600 221.206 C 165.730 222.852,164.110 224.290,164.000 224.400 C 163.890 224.511,162.450 225.770,160.800 227.200 C 159.150 228.630,157.710 229.893,157.600 230.007 C 157.490 230.122,156.050 231.382,154.401 232.808 C 152.751 234.233,151.131 235.671,150.801 236.003 C 150.470 236.335,148.850 237.774,147.200 239.203 C 145.550 240.631,144.110 241.890,144.000 242.000 C 143.890 242.110,142.450 243.371,140.801 244.800 C 136.235 248.757,134.400 250.496,134.400 250.865 C 134.400 251.671,135.569 251.014,137.800 248.954 C 139.120 247.735,141.190 245.897,142.400 244.869 C 143.610 243.841,144.870 242.729,145.200 242.397 C 145.530 242.065,147.150 240.626,148.800 239.197 C 150.450 237.769,151.890 236.507,152.000 236.393 C 152.110 236.278,153.550 235.018,155.199 233.592 C 156.849 232.167,158.469 230.729,158.799 230.397 C 159.130 230.065,160.750 228.626,162.400 227.197 C 164.050 225.769,165.490 224.510,165.600 224.400 C 165.710 224.290,167.150 223.031,168.800 221.603 C 170.450 220.174,172.070 218.733,172.400 218.400 C 172.730 218.067,174.350 216.626,176.000 215.197 C 177.650 213.769,179.090 212.510,179.200 212.400 C 179.310 212.290,180.750 211.030,182.400 209.600 C 184.050 208.171,186.210 206.256,187.200 205.345 C 188.190 204.434,189.630 203.177,190.400 202.552 C 191.170 201.927,192.070 201.141,192.400 200.805 C 192.730 200.469,194.350 199.026,196.000 197.597 C 197.650 196.169,199.090 194.907,199.200 194.793 C 199.310 194.678,200.750 193.418,202.399 191.992 C 204.049 190.567,205.669 189.129,205.999 188.797 C 206.330 188.465,207.950 187.026,209.600 185.597 C 211.250 184.169,212.690 182.910,212.800 182.800 C 212.910 182.690,214.350 181.431,216.000 180.003 C 217.650 178.574,219.270 177.133,219.600 176.800 C 219.930 176.467,221.550 175.026,223.200 173.597 C 224.850 172.169,226.290 170.910,226.400 170.800 C 226.510 170.690,227.950 169.430,229.600 168.000 C 231.250 166.571,233.410 164.656,234.400 163.745 C 235.390 162.834,236.830 161.577,237.600 160.952 C 238.370 160.327,239.270 159.541,239.600 159.205 C 239.930 158.869,241.550 157.426,243.200 155.997 C 244.850 154.569,246.290 153.307,246.400 153.193 C 246.510 153.078,247.950 151.818,249.599 150.392 C 251.249 148.967,252.869 147.529,253.199 147.197 C 253.530 146.865,255.150 145.426,256.800 143.997 C 258.450 142.569,259.890 141.310,260.000 141.200 C 260.110 141.090,261.505 139.856,263.100 138.458 C 264.695 137.061,266.000 135.756,266.000 135.559 C 266.000 134.778,264.913 135.299,263.187 136.909 M132.800 142.000 C 132.800 142.220,133.348 142.400,134.018 142.400 C 134.778 142.400,135.606 142.769,136.218 143.382 L 137.200 144.364 137.200 166.149 C 137.200 178.131,137.088 188.226,136.952 188.582 C 136.652 189.364,134.753 190.400,133.620 190.400 C 133.169 190.400,132.800 190.580,132.800 190.800 C 132.800 191.473,156.783 191.318,160.423 190.621 C 173.833 188.055,180.800 179.433,180.800 165.400 C 180.800 152.418,174.617 144.725,162.000 142.007 C 159.551 141.480,132.800 141.473,132.800 142.000 M158.615 142.987 C 166.972 145.164,171.465 150.909,172.858 161.200 C 174.468 173.089,170.368 184.392,163.186 187.863 C 156.536 191.076,146.664 191.254,145.266 188.185 C 144.487 186.475,144.639 145.247,145.428 144.200 C 146.770 142.420,153.914 141.763,158.615 142.987 M220.800 195.600 C 220.800 195.820,221.295 196.004,221.900 196.009 C 222.505 196.014,223.450 196.364,224.000 196.786 L 225.000 197.554 225.000 219.812 L 225.000 242.071 224.025 242.860 C 223.488 243.295,222.543 243.751,221.925 243.875 C 218.975 244.465,221.529 244.800,228.976 244.800 C 236.691 244.800,239.545 244.413,236.006 243.847 C 232.858 243.344,232.800 243.135,232.800 232.203 L 232.800 222.557 234.194 221.206 C 234.961 220.463,235.644 219.932,235.712 220.027 C 238.677 224.159,241.273 227.898,243.605 231.400 C 251.948 243.928,253.084 244.800,261.060 244.800 C 265.978 244.800,266.725 244.451,263.617 243.605 C 261.123 242.926,259.553 241.323,255.382 235.200 C 246.014 221.446,246.572 222.159,245.717 222.869 C 244.074 224.232,239.783 223.026,237.655 220.602 C 236.234 218.983,236.287 218.707,238.470 216.386 C 239.202 215.609,240.969 213.629,242.397 211.986 C 243.825 210.344,245.265 208.730,245.597 208.400 C 245.929 208.070,246.902 206.990,247.760 206.000 C 254.954 197.698,257.061 196.000,260.172 196.000 C 260.931 196.000,261.664 195.820,261.800 195.600 C 261.961 195.339,259.730 195.200,255.400 195.200 C 251.070 195.200,248.839 195.339,249.000 195.600 C 249.136 195.820,249.878 196.000,250.650 196.000 C 254.858 196.000,254.357 198.063,248.803 203.601 C 248.471 203.931,246.853 205.731,245.207 207.601 C 243.561 209.470,241.941 211.270,241.607 211.601 C 241.273 211.931,239.650 213.730,238.000 215.598 C 234.472 219.593,233.316 220.800,233.018 220.800 C 232.898 220.800,232.800 215.593,232.800 209.229 L 232.800 197.658 233.854 196.829 C 234.434 196.373,235.424 196.000,236.054 196.000 C 236.684 196.000,237.200 195.820,237.200 195.600 C 237.200 195.346,234.200 195.200,229.000 195.200 C 223.800 195.200,220.800 195.346,220.800 195.600 " stroke="none" fill="#50655e" fill-rule="evenodd"></path></g></svg>