<?xml version="1.0" standalone="no"?>
<!DOCTYPE svg PUBLIC "-//W3C//DTD SVG 20010904//EN"
 "http://www.w3.org/TR/2001/REC-SVG-20010904/DTD/svg10.dtd">
<svg version="1.0" xmlns="http://www.w3.org/2000/svg"
 width="800.000000pt" height="800.000000pt" viewBox="0 0 800.000000 800.000000"
 preserveAspectRatio="xMidYMid meet">

<g transform="translate(0.000000,800.000000) scale(0.100000,-0.100000)"
fill="#000000" stroke="none">
<path d="M7189 6993 c-8 -10 -41 -40 -73 -68 -32 -27 -76 -66 -96 -85 -53 -49
-91 -83 -168 -148 -37 -30 -81 -69 -98 -86 -30 -30 -117 -108 -160 -144 -37
-30 -134 -116 -173 -152 -47 -43 -143 -125 -178 -153 -14 -12 -47 -41 -72 -65
-25 -24 -66 -60 -89 -80 -24 -20 -56 -48 -70 -60 -15 -13 -49 -43 -75 -65 -27
-23 -73 -64 -103 -92 -29 -27 -59 -54 -66 -60 -25 -19 -152 -130 -184 -160
-30 -28 -77 -70 -141 -124 -23 -19 -119 -106 -202 -181 -9 -8 -32 -28 -51 -44
-48 -39 -157 -135 -195 -171 -17 -16 -55 -50 -85 -75 -30 -25 -69 -58 -86 -75
-38 -36 -144 -130 -199 -176 -64 -55 -95 -82 -135 -119 -44 -42 -140 -124
-178 -154 -15 -12 -41 -34 -58 -51 -42 -40 -150 -137 -254 -226 -47 -41 -96
-85 -110 -99 -14 -14 -50 -45 -80 -70 -69 -57 -103 -86 -150 -130 -20 -19 -63
-57 -96 -85 -52 -45 -120 -105 -164 -145 -10 -8 -48 -42 -85 -75 -71 -62 -147
-129 -175 -155 -10 -8 -46 -40 -81 -71 -199 -175 -246 -217 -275 -244 -17 -16
-51 -46 -75 -65 -52 -42 -112 -94 -155 -135 -17 -16 -55 -50 -84 -75 -29 -25
-61 -52 -70 -60 -9 -8 -43 -37 -75 -65 -32 -27 -75 -66 -96 -85 -37 -35 -114
-103 -178 -156 -19 -16 -56 -49 -81 -74 -26 -25 -67 -61 -90 -80 -51 -41 -111
-93 -156 -135 -18 -16 -56 -51 -86 -76 -163 -141 -189 -164 -248 -219 -44 -42
-140 -124 -178 -154 -15 -12 -41 -34 -58 -51 -46 -45 -165 -150 -199 -177 -16
-12 -44 -36 -61 -53 -55 -52 -97 -88 -171 -150 -40 -33 -73 -68 -73 -77 0 -18
15 -25 22 -10 2 4 15 17 31 29 32 25 124 104 176 153 21 19 64 58 96 85 32 28
68 59 80 70 13 11 53 47 91 80 37 33 75 67 84 75 9 8 34 30 55 49 80 67 159
137 199 176 23 22 58 54 78 70 88 72 123 103 174 151 29 28 72 67 94 85 23 19
52 42 63 52 41 35 160 142 191 173 17 17 38 35 47 40 17 9 120 100 188 164 21
19 62 56 92 81 30 26 66 57 80 70 15 13 57 51 94 84 37 33 73 65 79 70 6 6 43
37 81 70 39 33 79 69 91 80 28 27 140 126 184 161 19 16 54 48 78 72 23 23 45
42 48 42 2 0 17 12 32 28 15 15 52 47 82 72 30 25 62 52 70 60 32 30 177 159
260 230 34 29 149 131 169 150 15 14 118 104 185 160 16 14 48 43 70 65 23 22
66 60 96 85 61 51 132 113 170 150 14 14 46 41 70 61 25 20 56 47 70 59 32 28
148 131 170 150 9 8 47 42 85 75 39 32 84 72 100 87 90 84 196 178 247 218 10
8 43 38 72 65 56 53 149 134 194 169 15 12 41 35 58 51 29 28 112 102 168 150
98 85 165 144 191 170 17 17 51 46 76 66 24 20 56 47 70 60 15 13 57 51 94 84
37 33 75 67 83 75 9 8 31 27 50 42 29 23 88 76 211 188 9 8 32 28 51 44 49 39
157 135 195 171 17 17 44 40 59 52 41 33 143 122 195 173 26 25 67 61 91 81
25 20 56 47 70 59 49 42 153 135 171 152 10 9 42 37 73 61 30 25 52 48 49 51
-12 12 -39 6 -54 -11z"/>
<path d="M591 6701 c-11 -7 -6 -11 20 -16 87 -16 143 -42 174 -79 l30 -38 0
-1102 0 -1102 -25 -37 c-25 -36 -71 -57 -185 -83 -27 -6 -28 -7 -10 -15 28
-11 1131 -10 1202 2 32 5 96 14 143 20 47 6 100 17 118 25 18 8 47 14 65 14
18 0 42 7 53 15 10 8 27 15 37 15 30 0 201 81 260 122 170 118 268 229 352
395 50 102 63 133 80 193 97 342 83 727 -37 1040 -18 48 -76 159 -91 175 -7 7
-23 28 -37 47 -72 97 -212 213 -315 262 -22 10 -57 27 -78 37 -21 11 -44 19
-51 19 -8 0 -27 7 -42 15 -16 8 -40 15 -52 15 -13 0 -38 6 -55 14 -18 7 -70
18 -117 25 -47 6 -110 15 -140 20 -71 12 -1280 14 -1299 2z m1247 -43 c45 -8
88 -20 94 -26 7 -7 21 -12 32 -12 17 0 149 -61 201 -93 21 -13 136 -107 145
-118 3 -4 25 -30 50 -59 102 -120 171 -266 216 -455 36 -151 38 -176 38 -410
0 -251 -9 -330 -56 -500 -34 -122 -97 -264 -152 -344 -72 -102 -266 -271 -312
-271 -8 0 -14 -4 -14 -9 0 -5 -15 -13 -32 -16 -18 -4 -42 -14 -53 -21 -11 -8
-30 -14 -42 -14 -12 0 -37 -6 -55 -14 -96 -41 -394 -57 -533 -30 -109 22 -150
44 -175 95 -19 37 -20 66 -20 1099 0 895 2 1066 14 1095 21 50 86 92 154 101
31 4 66 11 77 15 30 13 327 3 423 -13z"/>
<path d="M4980 4001 c0 -5 20 -14 45 -20 126 -30 130 -32 157 -67 22 -30 27
-49 33 -127 3 -51 5 -547 3 -1103 l-3 -1010 -27 -41 c-23 -35 -36 -43 -96 -62
-39 -11 -77 -21 -85 -21 -9 0 -19 -4 -22 -10 -4 -7 135 -10 411 -10 230 0 414
3 410 7 -7 7 -55 21 -136 40 -36 8 -60 32 -81 82 -18 40 -19 75 -19 498 l-1
455 28 37 c31 42 59 73 92 105 20 20 27 22 52 13 16 -6 29 -15 29 -19 0 -11
132 -210 150 -228 5 -5 33 -46 55 -81 13 -21 79 -117 130 -189 21 -30 65 -93
96 -140 32 -47 80 -116 108 -155 28 -38 72 -101 98 -140 41 -60 140 -167 184
-200 19 -15 87 -49 129 -66 39 -15 500 -26 500 -12 0 9 -105 43 -130 43 -42 0
-159 99 -218 185 -15 22 -29 42 -32 45 -3 3 -36 50 -72 105 -37 55 -86 127
-109 160 -49 69 -134 193 -240 350 -41 61 -76 112 -79 115 -3 3 -16 22 -30 43
-23 35 -28 37 -59 32 -19 -4 -40 -13 -48 -21 -20 -20 -172 -20 -199 1 -10 8
-26 15 -34 15 -9 0 -25 7 -35 15 -99 74 -127 99 -140 125 -9 17 -20 30 -25 30
-6 0 -10 13 -10 28 0 21 14 43 50 81 28 29 50 54 50 57 0 3 11 15 24 27 12 12
45 49 73 82 27 33 62 71 76 85 15 14 27 31 27 38 0 6 7 12 15 12 8 0 15 5 15
10 0 6 23 33 50 61 28 28 50 52 50 55 0 2 9 13 20 24 21 21 26 40 11 40 -5 0
-11 -9 -14 -20 -3 -11 -12 -20 -21 -20 -9 0 -16 -4 -16 -10 0 -5 -15 -25 -32
-44 -18 -18 -55 -59 -83 -91 -27 -31 -65 -72 -82 -91 -18 -19 -33 -36 -33 -38
0 -3 -21 -26 -47 -53 -27 -27 -84 -89 -127 -138 -44 -50 -83 -91 -88 -93 -4
-2 -8 -8 -8 -12 0 -17 -46 -59 -73 -65 -26 -7 -27 -5 -27 31 0 22 0 278 0 571
0 575 1 577 55 627 13 12 50 27 86 35 84 17 89 19 89 31 0 7 -135 10 -410 10
-243 0 -410 -4 -410 -9z"/>
<path d="M6410 4001 c0 -13 26 -21 69 -21 21 0 51 -4 67 -9 16 -5 41 -12 55
-15 15 -3 34 -17 43 -30 14 -22 14 -29 1 -59 -8 -19 -12 -37 -9 -40 4 -3 25
12 48 34 76 73 136 98 290 118 27 3 51 12 54 19 3 9 -63 12 -307 12 -176 0
-311 -4 -311 -9z"/>
<path d="M6605 3809 c-10 -15 3 -25 16 -12 7 7 7 13 1 17 -6 3 -14 1 -17 -5z"/>
<path d="M6570 3764 c0 -8 5 -12 10 -9 6 3 10 10 10 16 0 5 -4 9 -10 9 -5 0
-10 -7 -10 -16z"/>
<path d="M6540 3734 c0 -8 5 -12 10 -9 6 3 10 10 10 16 0 5 -4 9 -10 9 -5 0
-10 -7 -10 -16z"/>
<path d="M6493 3686 c-13 -13 -23 -29 -23 -35 0 -6 -7 -11 -15 -11 -8 0 -15
-7 -15 -15 0 -8 -7 -15 -15 -15 -8 0 -15 -5 -15 -12 0 -7 -12 -25 -27 -40 -21
-22 -23 -28 -10 -28 9 0 17 7 17 15 0 8 7 15 15 15 8 0 15 4 15 9 0 5 25 35
55 67 30 33 55 62 55 66 0 14 -15 8 -37 -16z"/>
<path d="M6322 3493 c-12 -14 -19 -30 -16 -35 7 -11 24 0 24 17 0 7 7 15 15
19 8 3 15 10 15 16 0 18 -16 11 -38 -17z"/>
<path d="M6273 3431 c-3 -11 -9 -18 -14 -15 -5 3 -12 -2 -15 -11 -11 -27 1
-26 30 4 19 19 24 31 16 36 -7 4 -14 -1 -17 -14z"/>
</g>
</svg>
